<?xml version="1.0" encoding="utf-8"?>
<!-- Generator: Adobe Illustrator 27.5.0, SVG Export Plug-In . SVG Version: 6.00 Build 0)  -->
<svg version="1.1" xmlns="http://www.w3.org/2000/svg" xmlns:xlink="http://www.w3.org/1999/xlink" x="0px" y="0px"
	 viewBox="0 0 500 500" style="enable-background:new 0 0 500 500;" xml:space="preserve">
<g id="Background_Complete">
	<g>
		<rect x="416.779" y="398.494" style="fill:#EBEBEB;" width="33.122" height="0.25"/>
		<rect x="322.527" y="401.208" style="fill:#EBEBEB;" width="8.693" height="0.25"/>
		<rect x="396.586" y="389.208" style="fill:#EBEBEB;" width="19.192" height="0.25"/>
		<rect x="52.459" y="390.888" style="fill:#EBEBEB;" width="43.193" height="0.25"/>
		<rect x="104.556" y="390.888" style="fill:#EBEBEB;" width="6.333" height="0.25"/>
		<rect x="131.471" y="395.111" style="fill:#EBEBEB;" width="93.676" height="0.25"/>
		<path style="fill:#EBEBEB;" d="M237.014,337.8H43.915c-3.147,0-5.708-2.561-5.708-5.708V60.66c0-3.147,2.561-5.708,5.708-5.708
			h193.099c3.146,0,5.707,2.561,5.707,5.708v271.432C242.721,335.239,240.16,337.8,237.014,337.8z M43.915,55.203
			c-3.01,0-5.458,2.448-5.458,5.458v271.432c0,3.01,2.448,5.458,5.458,5.458h193.099c3.009,0,5.457-2.448,5.457-5.458V60.66
			c0-3.009-2.448-5.458-5.457-5.458H43.915z"/>
		<path style="fill:#EBEBEB;" d="M453.31,337.8H260.212c-3.147,0-5.707-2.561-5.707-5.708V60.66c0-3.147,2.561-5.708,5.707-5.708
			H453.31c3.148,0,5.708,2.561,5.708,5.708v271.432C459.019,335.239,456.458,337.8,453.31,337.8z M260.212,55.203
			c-3.009,0-5.457,2.448-5.457,5.458v271.432c0,3.01,2.448,5.458,5.457,5.458H453.31c3.01,0,5.458-2.448,5.458-5.458V60.66
			c0-3.009-2.448-5.458-5.458-5.458H260.212z"/>
		<rect y="382.398" style="fill:#EBEBEB;" width="500" height="0.25"/>
	</g>
	<g>
		<g>
			<g>
				<path style="fill:#F5F5F5;" d="M467.156,283.38L467.156,283.38H347.015l0,0c0,4.411,3.472,8.032,7.878,8.231
					c12.911,0.582,32.773,2.625,39.072,9.769c11.741,13.316,10.604,60.095-3.46,70.929c-4.41,3.397-17.265,10.142-17.265,10.142
					h67.691c0,0-12.012-6.881-16.186-10.142c-13.984-10.923-14.391-57.674-2.595-70.929c6.052-6.801,24.669-8.998,37.16-9.691
					C463.716,291.445,467.156,287.793,467.156,283.38z"/>
				<path style="fill:#E6E6E6;" d="M361.897,292.047c12.203,0.979,26.828,3.39,32.068,9.333c1.551,1.759,2.87,4.114,3.972,6.88
					h20.178c1.131-2.769,2.473-5.125,4.035-6.88c5.26-5.91,20.006-8.342,31.977-9.333H361.897z"/>
			</g>
			<g>
				<polygon style="fill:#EBEBEB;" points="415.979,283.439 414.345,264.765 438.027,264.765 439.661,283.439 				"/>
				<polygon style="fill:#E0E0E0;" points="415.979,283.439 414.345,264.765 413.07,264.765 414.704,283.439 				"/>
				<polygon style="fill:#F0F0F0;" points="418.227,281.535 416.927,266.669 435.78,266.669 437.08,281.535 				"/>
				<polygon style="fill:#FAFAFA;" points="419.672,280.311 418.586,267.893 434.335,267.893 435.421,280.311 				"/>
			</g>
			<g>
				<g>
					<polygon style="fill:#E6E6E6;" points="408.297,283.38 384.508,283.38 387.147,253.211 410.937,253.211 					"/>
					<polygon style="fill:#E0E0E0;" points="408.297,283.38 409.433,283.38 412.073,253.211 410.937,253.211 					"/>
					<polygon style="fill:#F0F0F0;" points="406.141,280.305 387.202,280.305 389.303,256.287 408.242,256.287 					"/>
					<polygon style="fill:#FAFAFA;" points="404.755,278.327 388.934,278.327 390.69,258.264 406.51,258.264 					"/>
				</g>
				<path style="fill:#EBEBEB;" d="M396.764,267.291L396.764,267.291c1.075,1.075,2.817,1.075,3.892,0l0,0
					c1.075-1.075,1.075-2.817,0-3.892l0,0c-1.075-1.075-2.817-1.075-3.892,0l0,0C395.689,264.473,395.689,266.216,396.764,267.291z"
					/>
				<path style="fill:#F0F0F0;" d="M397.929,270.662L397.929,270.662c-0.787-0.787-2.063-0.787-2.85,0l0,0
					c-1.269,1.27-0.37,3.44,1.425,3.44l0,0C398.299,274.102,399.198,271.931,397.929,270.662z"/>
			</g>
		</g>
		<g>
			<path style="fill:#EBEBEB;" d="M101.476,320.025l18.461-53.208c0,0-25.606,18.983-25.435-2.064
				c0.171-21.047,11.665-4.703,15.656-12.477c3.991-7.775-11.36-7.691-5.973-19.48c5.386-11.79,20.694,6.325,23.398-4.12
				s7.014-15.756,18.162-14.818c0,0,6.025,13.742-1.36,23.668c-7.385,9.927,18.267,1.974,15.66,11.961
				c-2.606,9.986-11.172,18.703-14.944,11.671c-3.773-7.033-8.56,6.443-2.112,9.913c6.448,3.47-8.43,18.508-11.695,10.626
				c-3.264-7.883-8.382-14.902-8.382-14.902l-17.013,56.929L101.476,320.025z"/>
			<path style="fill:#E6E6E6;" d="M82.45,320.496l-20.813-34.028c0,0,20.586,9.266,17.287-5.271
				c-3.298-14.537-8.782-1.492-12.718-6.268c-3.936-4.777,6.698-7.038,1.19-14.382c-5.508-7.344-13.363,7.503-16.812,0.684
				c-3.449-6.818-7.234-9.842-14.806-7.509c0,0-2.093,10.418,4.517,16.171s-12.341,4.126-9.029,10.642
				c3.312,6.516,10.556,11.254,12.104,5.818c1.548-5.436,6.896,3.165,2.959,6.54c-3.938,3.375,8.629,11.533,9.697,5.585
				c1.068-5.948,3.549-11.578,3.549-11.578l20.373,36.821L82.45,320.496z"/>
			<path style="fill:#F5F5F5;" d="M96.468,320.822l-9.531-54.814c0,0,21.944,22.582,25.127,2.036
				c3.183-20.547-10.624-6.441-13.278-14.656c-2.654-8.215,12.299-5.69,8.924-18.042c-3.375-12.352-21.182,2.873-22.157-7.74
				c-0.974-10.614-4.331-16.477-15.349-17.338c0,0-8.061,12.439-2.44,23.292c5.621,10.853-18.123-0.982-17.172,9.169
				c0.952,10.151,7.915,20.013,12.713,13.757s7.32,7.644,0.481,10c-6.839,2.356,5.274,19.386,9.711,12.22
				c4.437-7.166,10.544-13.195,10.544-13.195l7.528,58.211L96.468,320.822z"/>
			<g>
				<path style="fill:#EBEBEB;" d="M108.274,382.451H75.555c-2.288,0-4.18-1.78-4.321-4.064l-3.468-56.431
					c-0.153-2.491,1.826-4.595,4.321-4.595h39.654c2.495,0,4.474,2.104,4.321,4.595l-3.468,56.431
					C112.454,380.671,110.562,382.451,108.274,382.451z"/>
				<path style="fill:#F5F5F5;" d="M115.652,323.721H67.773c-2.199,0-4.048-1.648-4.3-3.832v0c-0.297-2.57,1.713-4.826,4.3-4.826
					h47.879c2.588,0,4.597,2.255,4.3,4.826v0C119.7,322.073,117.851,323.721,115.652,323.721z"/>
			</g>
		</g>
		<g>
			<path style="fill:#F5F5F5;" d="M291.164,376.386h23.17l-12.181-99.206c-0.516-4.2-4.338-7.604-8.538-7.604h-7.963h-93.139
				l14.821,106.81H291.164z"/>
			<path style="fill:#F0F0F0;" d="M217.678,376.386h-23.17l-12.181-99.206c-0.516-4.2,2.471-7.604,6.67-7.604h7.963
				c4.199,0,8.022,3.404,8.537,7.604L217.678,376.386z"/>
			<g>
				<path style="fill:#E6E6E6;" d="M226.214,376.269l-4.198-47.984c-0.188-2.143-1.843-3.866-3.978-4.138l-1.726-0.22
					c-2.863-0.365-5.084-2.676-5.336-5.551l-0.766-8.749c-0.314-3.586,2.512-6.67,6.112-6.67H177.6c-3.6,0-6.426,3.084-6.112,6.67
					l0.766,8.749c0.251,2.875,2.473,5.186,5.335,5.551l1.727,0.22c2.134,0.272,3.79,1.995,3.977,4.138l4.198,47.984
					c0.306,3.498,3.235,6.183,6.747,6.183h38.723C229.449,382.451,226.52,379.767,226.214,376.269z"/>
			</g>
			<path style="fill:#E6E6E6;" d="M332.777,316.273c0.659-7.535,6.969-13.317,14.533-13.317h-18.737h-14.975
				c-7.564,0-13.874,5.782-14.533,13.317l-3.328,38.037h33.712L332.777,316.273z"/>
			<path style="fill:#F0F0F0;" d="M362.284,302.956H347.31c-7.564,0-13.873,5.782-14.533,13.317l-3.328,38.037h-80.29l-3.328-38.037
				c-0.659-7.535-6.969-13.317-14.533-13.317h-14.975c-3.599,0-6.426,3.084-6.112,6.67l0.766,8.749
				c0.251,2.875,2.473,5.186,5.336,5.551l1.726,0.22c2.134,0.272,3.79,1.995,3.977,4.138l4.198,47.984
				c0.306,3.498,3.235,6.183,6.747,6.183h112.686c3.512,0,6.441-2.684,6.747-6.183l4.198-47.984
				c0.188-2.143,1.843-3.866,3.977-4.138l1.727-0.22c2.863-0.365,5.084-2.676,5.336-5.551l0.765-8.749
				C368.71,306.04,365.884,302.956,362.284,302.956z"/>
		</g>
	</g>
	<g>
		<circle style="fill:#F5F5F5;" cx="250" cy="158.344" r="44.387"/>
		<circle style="fill:#FAFAFA;" cx="250" cy="158.344" r="37.643"/>
		<path style="fill:#E6E6E6;" d="M250,120.701c-0.593,0-1.181,0.018-1.767,0.045c19.969,0.923,35.875,17.401,35.875,37.598
			c0,20.197-15.907,36.675-35.875,37.598c0.586,0.027,1.175,0.045,1.767,0.045c20.79,0,37.643-16.853,37.643-37.643
			S270.79,120.701,250,120.701z"/>
		<path style="fill:#F0F0F0;" d="M250.014,195.943c-0.005,0-0.009,0-0.014,0c0.953-0.044,1.894-0.135,2.827-0.248v-34.522h32.932
			c0.069-0.935,0.116-1.876,0.116-2.828c0-0.952-0.047-1.893-0.116-2.827h-32.932v-34.522c-0.934-0.114-1.874-0.204-2.827-0.248
			c0.001,0,0.002,0,0.003,0h-2.831v34.771h-34.77v5.655h34.77v34.771H250.014z"/>
		<g>
			<rect x="244.344" y="120.746" style="fill:#E6E6E6;" width="2.828" height="34.771"/>
			<rect x="244.344" y="161.172" style="fill:#E6E6E6;" width="2.828" height="34.771"/>
		</g>
	</g>
</g>
<g id="Background_Simple" style="display:none;">
	<g style="display:inline;">
		<path style="fill:#407BFF;" d="M62.1,158.077c16.572-26.672,87.75-76.138,123.161-66.956
			c31.069,8.056,15.414,86.358,44.466,98.297c30.604,12.577,86.887-58.924,120.526-53.152
			c53.504,9.182,113.884,122.69,86.866,160.768c-30.013,42.3-168.398,81.411-227.243,69.215
			c-47.96-9.94-137.331-62.039-154.618-99.193C43.363,241.492,46.923,182.504,62.1,158.077z"/>
		<path style="opacity:0.9;fill:#FFFFFF;" d="M62.1,158.077c16.572-26.672,87.75-76.138,123.161-66.956
			c31.069,8.056,15.414,86.358,44.466,98.297c30.604,12.577,86.887-58.924,120.526-53.152
			c53.504,9.182,113.884,122.69,86.866,160.768c-30.013,42.3-168.398,81.411-227.243,69.215
			c-47.96-9.94-137.331-62.039-154.618-99.193C43.363,241.492,46.923,182.504,62.1,158.077z"/>
	</g>
</g>
<g id="Shadow">
	<ellipse id="_x3C_Path_x3E__1_" style="fill:#F5F5F5;" cx="245.178" cy="412.391" rx="193.889" ry="11.323"/>
</g>
<g id="Chat_2">
	<g>
		<g>
			<path style="fill:#407BFF;" d="M293.703,292.418l-1.343,25.624c-0.09,1.725,1.235,3.124,2.96,3.124h88.835
				c1.161,0,2.25,0.461,3.027,1.282l4.516,4.766c1.066,1.125,3.033,0.328,3.116-1.263l1.757-33.532
				c0.09-1.725-1.235-3.124-2.96-3.124h-96.621C295.265,289.294,293.793,290.693,293.703,292.418z"/>
			<path style="opacity:0.4;fill:#FFFFFF;" d="M293.703,292.418l-1.343,25.624c-0.09,1.725,1.235,3.124,2.96,3.124h88.835
				c1.161,0,2.25,0.461,3.027,1.282l4.516,4.766c1.066,1.125,3.033,0.328,3.116-1.263l1.757-33.532
				c0.09-1.725-1.235-3.124-2.96-3.124h-96.621C295.265,289.294,293.793,290.693,293.703,292.418z"/>
		</g>
		<path style="fill:#407BFF;" d="M291.808,290.418l-1.343,25.624c-0.09,1.725,1.235,3.124,2.96,3.124h88.835
			c1.161,0,2.25,0.461,3.028,1.282l4.516,4.766c1.066,1.125,3.033,0.328,3.116-1.263l1.757-33.532
			c0.091-1.725-1.235-3.124-2.96-3.124h-96.621C293.37,287.294,291.898,288.693,291.808,290.418z"/>
		<path style="opacity:0.8;fill:#FFFFFF;" d="M291.808,290.418l-1.343,25.624c-0.09,1.725,1.235,3.124,2.96,3.124h88.835
			c1.161,0,2.25,0.461,3.028,1.282l4.516,4.766c1.066,1.125,3.033,0.328,3.116-1.263l1.757-33.532
			c0.091-1.725-1.235-3.124-2.96-3.124h-96.621C293.37,287.294,291.898,288.693,291.808,290.418z"/>
		<g>
			<g>
				<polygon style="fill:#407BFF;" points="343.823,307.656 340.249,303.884 341.448,302.744 343.943,305.376 348.704,300.852 
					349.784,301.992 				"/>
			</g>
			<g>
				<polygon style="fill:#407BFF;" points="345.29,303.825 344.266,302.744 343.066,303.884 344.09,304.965 				"/>
				<polygon style="fill:#407BFF;" points="351.521,300.852 346.759,305.376 346.64,305.25 345.44,306.39 346.64,307.656 
					352.601,301.992 				"/>
			</g>
		</g>
		<g>
			<path style="fill:#263238;" d="M311.996,299.14l-0.44,8.396h-0.636l0.211-4.018h-4.881l-0.211,4.018h-0.636l0.44-8.396h0.636
				l-0.198,3.778h4.881l0.198-3.778H311.996z"/>
			<path style="fill:#263238;" d="M313.763,299.608c0.013-0.252,0.24-0.468,0.504-0.468c0.264,0,0.469,0.216,0.456,0.468
				c-0.014,0.264-0.241,0.48-0.505,0.48C313.954,300.088,313.749,299.872,313.763,299.608z M313.841,301.539h0.6l-0.314,5.997h-0.6
				L313.841,301.539z"/>
			<path style="fill:#263238;" d="M315.817,307.116c0.016-0.3,0.256-0.54,0.568-0.54c0.3,0,0.527,0.24,0.511,0.54
				c-0.016,0.3-0.268,0.54-0.568,0.54C316.017,307.656,315.802,307.416,315.817,307.116z"/>
			<path style="fill:#263238;" d="M318.373,307.116c0.016-0.3,0.256-0.54,0.568-0.54c0.3,0,0.527,0.24,0.512,0.54
				c-0.016,0.3-0.269,0.54-0.568,0.54C318.573,307.656,318.358,307.416,318.373,307.116z"/>
			<path style="fill:#263238;" d="M320.93,307.116c0.016-0.3,0.256-0.54,0.568-0.54c0.3,0,0.527,0.24,0.511,0.54
				c-0.016,0.3-0.268,0.54-0.568,0.54C321.129,307.656,320.914,307.416,320.93,307.116z"/>
		</g>
		<g>
			
				<ellipse transform="matrix(0.7163 -0.6978 0.6978 0.7163 -104.974 348.2593)" style="fill:#FFFFFF;" cx="375.812" cy="303.23" rx="12.658" ry="12.012"/>
			<path style="fill:#FFB573;" d="M370.629,311.701c0,0,1.697-1.443,2.094-4.94h4.854c0,0-0.222,4.94,2.139,4.94H370.629z"/>
			<path style="opacity:0.1;" d="M372.723,306.76c-0.085,0.752-0.233,1.403-0.408,1.971c0.72,0.287,1.606,0.499,2.661,0.499
				c1.007,0,1.917-0.234,2.697-0.556c-0.134-1.024-0.095-1.914-0.095-1.914H372.723z"/>
			<path style="fill:#FFB573;" d="M382.489,299.097c-0.266,5.067-3.139,9.174-7.651,9.174c-4.512,0-6.955-4.107-6.69-9.174
				c0.266-5.067,3.139-9.174,7.651-9.174C380.311,289.923,382.754,294.03,382.489,299.097z"/>
			<path style="fill:#ED893E;" d="M375.781,299.518c0.131,0.844,0.378,1.659,0.735,2.424c-0.41,0.198-0.877,0.208-1.275,0.028
				L375.781,299.518z"/>
			<g>
				<path style="fill:#263238;" d="M377.24,303.579c0,0-1.113-0.119-4.194,0.376c0.423,1.024,1.186,1.291,2.763,1.02
					C377.385,304.703,377.24,303.579,377.24,303.579z"/>
				<path style="fill:#FFFFFF;" d="M377.097,303.579c-0.037,0.266-0.21,0.499-0.456,0.615c-0.91,0.145-1.827,0.201-2.739,0.167
					c-0.308,0.017-0.589-0.144-0.722-0.415C374.478,303.705,375.789,303.582,377.097,303.579z"/>
				<path style="fill:#FFFFFF;" d="M376.558,304.122c-0.826-0.087-1.667-0.045-2.494,0.124c-0.223,0.088-0.42,0.235-0.57,0.424
					c0.454,0.438,1.179,0.515,2.308,0.324c0.428-0.045,0.834-0.241,1.144-0.553C376.833,304.317,376.703,304.21,376.558,304.122z"/>
			</g>
			<g>
				<path style="fill:#263238;" d="M372.619,299.545c-0.04,0.336,0.102,0.619,0.321,0.632c0.219,0.013,0.425-0.244,0.464-0.579
					c0.04-0.336-0.104-0.614-0.322-0.627C372.863,298.957,372.657,299.214,372.619,299.545z"/>
				<path style="fill:#263238;" d="M371.489,298.371c-0.034-0.003-0.066-0.012-0.095-0.028c-0.074-0.073-0.077-0.195-0.005-0.278
					c0.431-0.484,1.058-0.745,1.686-0.702c0.107,0.015,0.178,0.114,0.158,0.222c-0.02,0.108-0.124,0.184-0.231,0.169l0,0
					c-0.498-0.03-0.992,0.182-1.329,0.569C371.622,298.37,371.553,298.388,371.489,298.371z"/>
			</g>
			<g>
				<path style="fill:#263238;" d="M378.608,299.545c0.004,0.336-0.167,0.619-0.387,0.632c-0.22,0.013-0.399-0.244-0.404-0.579
					c-0.004-0.336,0.168-0.614,0.388-0.627C378.425,298.957,378.604,299.214,378.608,299.545z"/>
				<path style="fill:#263238;" d="M379.861,298.371c0.034-0.003,0.067-0.012,0.098-0.028c0.082-0.073,0.097-0.195,0.034-0.278
					c-0.38-0.484-0.98-0.745-1.612-0.702c-0.109,0.015-0.19,0.114-0.181,0.222c0.009,0.108,0.104,0.184,0.213,0.169l0,0
					c0.501-0.03,0.973,0.182,1.269,0.569C379.728,298.37,379.796,298.388,379.861,298.371z"/>
			</g>
			<path style="fill:#263238;" d="M382.567,298.97l-0.078,0.127c-2.035-6.858-6.164-5.65-6.164-5.65l2.951,1.37
				c-4.876-0.06-7.665-1.846-7.665-1.846c-1.426,5.361-3.728,6.604-3.728,6.604l-0.028-0.604
				c-0.024-13.179,5.361-11.562,8.558-11.004c1.771,0.309,6.451,0.857,6.76-1.923C383.173,286.044,384.459,293.736,382.567,298.97z"
				/>
			<path style="fill:#FFB573;" d="M368.945,299.556c0.486,1.053,0.318,2.26-0.376,2.695c-0.694,0.435-1.651-0.066-2.137-1.119
				c-0.486-1.053-0.318-2.259,0.376-2.695C367.502,298.002,368.458,298.503,368.945,299.556z"/>
			<path style="fill:#FFB573;" d="M381.25,299.556c-0.597,1.053-0.555,2.26,0.094,2.695c0.648,0.435,1.658-0.066,2.254-1.119
				c0.597-1.053,0.555-2.259-0.093-2.695C382.855,298.002,381.846,298.503,381.25,299.556z"/>
			<path style="fill:#407BFF;" d="M375.166,315.56c3.416,0,6.58-1.39,8.931-3.635c-2.23-1.255-5.135-1.206-5.135-1.206
				s-1.56,0.981-4.125,0.981c-2.565,0-3.896-0.981-3.896-0.981c-2.037,0-3.505,0.371-4.568,0.921
				C368.496,314.047,371.611,315.56,375.166,315.56z"/>
		</g>
	</g>
</g>
<g id="Online_Friends_2">
	<g>
		<g>
			<g>
				<path style="fill:#407BFF;" d="M401.904,267.581h-91.421c-3.144,0-5.56-2.549-5.395-5.693l6.937-132.374
					c0.165-3.144,2.847-5.693,5.992-5.693h91.421c3.144,0,5.56,2.549,5.395,5.693l-6.937,132.374
					C407.73,265.032,405.048,267.581,401.904,267.581z"/>
				<path style="opacity:0.4;fill:#FFFFFF;" d="M401.904,267.581h-91.421c-3.144,0-5.56-2.549-5.395-5.693l6.937-132.374
					c0.165-3.144,2.847-5.693,5.992-5.693h91.421c3.144,0,5.56,2.549,5.395,5.693l-6.937,132.374
					C407.73,265.032,405.048,267.581,401.904,267.581z"/>
			</g>
			<path style="fill:#407BFF;" d="M399.904,265.581h-91.421c-3.144,0-5.56-2.549-5.395-5.693l6.937-132.374
				c0.165-3.144,2.847-5.693,5.992-5.693h91.421c3.144,0,5.56,2.549,5.395,5.693l-6.937,132.374
				C405.73,263.032,403.048,265.581,399.904,265.581z"/>
			<path style="opacity:0.9;fill:#FFFFFF;" d="M399.904,265.581h-91.421c-3.144,0-5.56-2.549-5.395-5.693l6.937-132.374
				c0.165-3.144,2.847-5.693,5.992-5.693h91.421c3.144,0,5.56,2.549,5.395,5.693l-6.937,132.374
				C405.73,263.032,403.048,265.581,399.904,265.581z"/>
			<polygon style="fill:#407BFF;" points="402.056,227.169 310.357,227.169 315.052,137.57 406.751,137.57 			"/>
			<g>
				<g>
					<path style="fill:#263238;" d="M327.339,130.308c5.483,0,10.967,0,16.45,0c0.676,0,0.732-1.05,0.055-1.05
						c-5.483,0-10.967,0-16.45,0C326.719,129.258,326.663,130.308,327.339,130.308L327.339,130.308z"/>
				</g>
				<g style="opacity:0.5;">
					<path style="fill:#FFFFFF;" d="M327.339,130.308c5.483,0,10.967,0,16.45,0c0.676,0,0.732-1.05,0.055-1.05
						c-5.483,0-10.967,0-16.45,0C326.719,129.258,326.663,130.308,327.339,130.308L327.339,130.308z"/>
				</g>
			</g>
			<g>
				<g>
					<path style="fill:#263238;" d="M327.17,133.545c4.142,0,8.283,0,12.425,0c0.676,0,0.732-1.05,0.055-1.05
						c-4.142,0-8.283,0-12.425,0C326.549,132.495,326.493,133.545,327.17,133.545L327.17,133.545z"/>
				</g>
				<g style="opacity:0.5;">
					<path style="fill:#FFFFFF;" d="M327.17,133.545c4.142,0,8.283,0,12.425,0c0.676,0,0.732-1.05,0.055-1.05
						c-4.142,0-8.283,0-12.425,0C326.549,132.495,326.493,133.545,327.17,133.545L327.17,133.545z"/>
				</g>
			</g>
			<g>
				<path style="fill:#407BFF;" d="M358.623,246.331c4.549,0,9.099,0,13.648,0c1.013,0,1.098-1.575,0.083-1.575
					c-4.549,0-9.099,0-13.648,0C357.692,244.756,357.608,246.331,358.623,246.331L358.623,246.331z"/>
			</g>
			<g>
				<g>
					<path style="fill:#263238;" d="M309.619,241.256c6.417,0,12.833,0,19.25,0c1.013,0,1.098-1.575,0.083-1.575
						c-6.417,0-12.833,0-19.25,0C308.688,239.681,308.603,241.256,309.619,241.256L309.619,241.256z"/>
				</g>
				<g>
					<path style="fill:#263238;" d="M309.353,246.331c15.283,0,30.566,0,45.849,0c1.013,0,1.098-1.575,0.082-1.575
						c-15.283,0-30.566,0-45.849,0C308.422,244.756,308.337,246.331,309.353,246.331L309.353,246.331z"/>
				</g>
				<g>
					<path style="fill:#263238;" d="M309.087,251.406c11.056,0,22.112,0,33.168,0c1.013,0,1.098-1.575,0.082-1.575
						c-11.056,0-22.112,0-33.168,0C308.156,249.831,308.072,251.406,309.087,251.406L309.087,251.406z"/>
				</g>
				<g>
					<path style="fill:#263238;" d="M308.821,256.481c4.29,0,8.579,0,12.869,0c1.013,0,1.098-1.575,0.083-1.575
						c-4.29,0-8.579,0-12.869,0C307.89,254.906,307.806,256.481,308.821,256.481L308.821,256.481z"/>
				</g>
				<g style="opacity:0.5;">
					<path style="fill:#FFFFFF;" d="M309.619,241.256c6.417,0,12.833,0,19.25,0c1.013,0,1.098-1.575,0.083-1.575
						c-6.417,0-12.833,0-19.25,0C308.688,239.681,308.603,241.256,309.619,241.256L309.619,241.256z"/>
				</g>
				<g style="opacity:0.5;">
					<path style="fill:#FFFFFF;" d="M309.353,246.331c15.283,0,30.566,0,45.849,0c1.013,0,1.098-1.575,0.082-1.575
						c-15.283,0-30.566,0-45.849,0C308.422,244.756,308.337,246.331,309.353,246.331L309.353,246.331z"/>
				</g>
				<g style="opacity:0.5;">
					<path style="fill:#FFFFFF;" d="M309.087,251.406c11.056,0,22.112,0,33.168,0c1.013,0,1.098-1.575,0.082-1.575
						c-11.056,0-22.112,0-33.168,0C308.156,249.831,308.072,251.406,309.087,251.406L309.087,251.406z"/>
				</g>
				<g style="opacity:0.5;">
					<path style="fill:#FFFFFF;" d="M308.821,256.481c4.29,0,8.579,0,12.869,0c1.013,0,1.098-1.575,0.083-1.575
						c-4.29,0-8.579,0-12.869,0C307.89,254.906,307.806,256.481,308.821,256.481L308.821,256.481z"/>
				</g>
			</g>
			<g>
				<g>
					<path style="fill:#263238;" d="M406.999,132.845c-0.015,0.29-0.263,0.525-0.552,0.525c-0.29,0-0.513-0.235-0.497-0.525
						c0.015-0.29,0.263-0.525,0.552-0.525C406.791,132.32,407.014,132.555,406.999,132.845z"/>
					<path style="fill:#263238;" d="M407.085,131.212c-0.015,0.29-0.263,0.525-0.552,0.525c-0.29,0-0.513-0.235-0.498-0.525
						c0.015-0.29,0.263-0.525,0.553-0.525C406.877,130.687,407.1,130.922,407.085,131.212z"/>
					<path style="fill:#263238;" d="M407.17,129.578c-0.015,0.29-0.263,0.525-0.552,0.525c-0.29,0-0.513-0.235-0.498-0.525
						c0.015-0.29,0.263-0.525,0.553-0.525C406.963,129.053,407.185,129.288,407.17,129.578z"/>
				</g>
				<g style="opacity:0.5;">
					<path style="fill:#FFFFFF;" d="M406.999,132.845c-0.015,0.29-0.263,0.525-0.552,0.525c-0.29,0-0.513-0.235-0.497-0.525
						c0.015-0.29,0.263-0.525,0.552-0.525C406.791,132.32,407.014,132.555,406.999,132.845z"/>
					<path style="fill:#FFFFFF;" d="M407.085,131.212c-0.015,0.29-0.263,0.525-0.552,0.525c-0.29,0-0.513-0.235-0.498-0.525
						c0.015-0.29,0.263-0.525,0.553-0.525C406.877,130.687,407.1,130.922,407.085,131.212z"/>
					<path style="fill:#FFFFFF;" d="M407.17,129.578c-0.015,0.29-0.263,0.525-0.552,0.525c-0.29,0-0.513-0.235-0.498-0.525
						c0.015-0.29,0.263-0.525,0.553-0.525C406.963,129.053,407.185,129.288,407.17,129.578z"/>
				</g>
			</g>
			<g>
				<path style="fill:#263238;" d="M324.853,236.184c-1.737,0-3.076-1.413-2.985-3.15c0.091-1.737,1.578-3.15,3.315-3.15
					s3.076,1.413,2.985,3.15c-0.021,0.393-0.115,0.779-0.28,1.15l0.192,1.989l-1.901-0.285
					C325.742,236.084,325.297,236.184,324.853,236.184z M325.165,230.234c-1.544,0-2.866,1.256-2.947,2.8
					c-0.081,1.544,1.109,2.8,2.653,2.8c0.408,0,0.819-0.096,1.224-0.285l0.049-0.023l1.542,0.232l-0.156-1.617l0.021-0.045
					c0.158-0.342,0.248-0.699,0.267-1.062C327.899,231.49,326.709,230.234,325.165,230.234z"/>
			</g>
			<g>
				<path style="fill:#263238;" d="M352.669,233.862c-0.023,0.435-0.394,0.788-0.829,0.788s-0.769-0.353-0.746-0.788
					c0.023-0.435,0.394-0.787,0.829-0.787C352.358,233.075,352.692,233.428,352.669,233.862z"/>
				<path style="fill:#407BFF;" d="M355.973,233.862c-0.023,0.435-0.394,0.788-0.829,0.788c-0.435,0-0.769-0.353-0.746-0.788
					c0.023-0.435,0.394-0.787,0.829-0.787C355.661,233.075,355.996,233.428,355.973,233.862z"/>
				<path style="fill:#263238;" d="M359.276,233.862c-0.023,0.435-0.394,0.788-0.829,0.788s-0.769-0.353-0.746-0.788
					c0.023-0.435,0.394-0.787,0.829-0.787C358.965,233.075,359.299,233.428,359.276,233.862z"/>
				<path style="opacity:0.7;fill:#FFFFFF;" d="M352.669,233.862c-0.023,0.435-0.394,0.788-0.829,0.788s-0.769-0.353-0.746-0.788
					c0.023-0.435,0.394-0.787,0.829-0.787C352.358,233.075,352.692,233.428,352.669,233.862z"/>
				<path style="opacity:0.7;fill:#FFFFFF;" d="M359.276,233.862c-0.023,0.435-0.394,0.788-0.829,0.788s-0.769-0.353-0.746-0.788
					c0.023-0.435,0.394-0.787,0.829-0.787C358.965,233.075,359.299,233.428,359.276,233.862z"/>
			</g>
			<g>
				<path style="fill:#407BFF;" d="M316.321,230.509c-0.723-0.763-1.939-0.782-2.772-0.072c-0.758-0.71-1.976-0.691-2.779,0.072
					c-0.8,0.76-0.885,1.971-0.225,2.766l-0.009,0.009l0.084,0.088l0,0l2.63,2.775l2.921-2.775l0.093-0.089l-0.008-0.009
					C317,232.48,317.042,231.269,316.321,230.509z"/>
			</g>
			<g>
				<g>
					<path style="fill:#263238;" d="M401.76,236.14l-2.83-2.202l-3.061,2.202l0.326-6.212h5.892L401.76,236.14z M396.526,230.278
						l-0.271,5.163l2.698-1.941l2.494,1.941l0.271-5.163H396.526z"/>
				</g>
			</g>
			<g>
				<path style="fill:#407BFF;" d="M324.137,131.183c-0.127,2.416-2.188,4.375-4.604,4.375c-2.416,0-4.272-1.959-4.146-4.375
					c0.127-2.416,2.188-4.375,4.604-4.375C322.408,126.808,324.264,128.766,324.137,131.183z"/>
				<path style="fill:#FFFFFF;" d="M319.533,135.557c0.93,0,1.806-0.292,2.54-0.787l-0.169-1.366
					c-0.064-0.52-0.496-0.898-1.023-0.898h-0.521l0.03-0.567c0.588-0.287,1.022-0.928,1.061-1.676
					c0.053-1.015-0.638-1.837-1.544-1.837s-1.684,0.823-1.737,1.837c-0.039,0.748,0.328,1.389,0.886,1.676l-0.03,0.567h-0.521
					c-0.528,0-0.999,0.379-1.118,0.898l-0.312,1.366C317.758,135.265,318.603,135.557,319.533,135.557z"/>
			</g>
			<path style="fill:#263238;" d="M333.587,231.591l3.023,1.777l1.613,3.116l2.37-6.902L333.587,231.591z M334.472,231.697
				l5.226-1.498l-2.971,2.823L334.472,231.697z M338.164,235.593l-1.203-2.324l2.971-2.823L338.164,235.593z"/>
			<g>
				<path style="fill:#FFFFFF;" d="M368.44,227.169c-0.418-3.756-1.069-7.341-2.063-10.297l-29.257-1.83
					c0,0-0.787,3.122-2.183,12.126H368.44z"/>
				<path style="fill:#263238;" d="M351.554,138.737c0,0-2.633-5.087,5.692-9.25c8.325-4.162,18.609,0.818,17.396,11.601
					c-1.213,10.783,9.482,19.324,1.757,27.341c-7.724,8.016-32.387,6.29-31.789-3.925c0.719-12.29,4.219-12.415,5.433-18.217
					C351.256,140.485,351.554,138.737,351.554,138.737z"/>
				<path style="fill:#FFC3BD;" d="M317.874,185.751c0,0-4.213-6.491-4.674-6.706c-1.324-0.617-3.012-1.357-3.564-2.59
					c-0.552-1.233-2.435-2.96-1.825-5.18c0.61-2.22,4.004-3.453,5.134-3.823c1.129-0.37,3.869,1.48,4.506,3.453
					c0.637,1.973,0.313,5.797,0.313,5.797l4.596,4.671L317.874,185.751z"/>
				<g>
					<path style="fill:#263238;" d="M316.545,185.127c2.132,3.717,5.329,8.232,8.919,9.196c5.512,1.48,16.732-12.58,16.732-12.58
						s8.82-21.176,1.673-16.588c-3.622,2.324-7.329,6.845-11.112,13.135s-4.919,6.783-6.626,6.413
						c-0.854-0.185-2.663-2.713-4.299-4.455L316.545,185.127z"/>
					<path style="opacity:0.2;" d="M316.545,185.127c2.132,3.717,5.329,8.232,8.919,9.196c5.512,1.48,16.732-12.58,16.732-12.58
						s8.82-21.176,1.673-16.588c-3.622,2.324-7.329,6.845-11.112,13.135s-4.919,6.783-6.626,6.413
						c-0.854-0.185-2.663-2.713-4.299-4.455L316.545,185.127z"/>
				</g>
				<path style="opacity:0.5;" d="M343.945,177.186l-2.67-1.264l-4.415,2.677c0,0-1.89,9.761-6.134,14.177
					c5.403-3.435,11.47-11.033,11.47-11.033S343.011,179.781,343.945,177.186z"/>
				<g>
					<path style="fill:#FFC3BD;" d="M364.348,150.17c-1.143,4.188-2.433,10.342,0.297,13.225c0,0-0.489,4.297-12.755,8.659
						c-3.825-6.268-0.383-8.972-0.383-8.972c4.799-1.01,4.816-2.926,4.251-6.225L364.348,150.17z"/>
					<path style="opacity:0.2;enable-background:new    ;" d="M360.864,152.863l-5.053,3.996c0.146,0.766,0.221,1.546,0.226,2.333
						c1.825-0.212,4.764-1.674,5.299-3.622C361.409,154.631,361.246,153.7,360.864,152.863z"/>
					<path style="fill:#FFC3BD;" d="M370.4,143.069c-2.416,6.866-3.298,9.806-7.795,12.55c-6.768,4.137-14.536,0.099-14.189-7.235
						c0.324-6.607,4.237-16.758,11.759-17.887c5.372-0.862,10.2,2.758,10.783,8.085C371.122,140.083,370.931,141.619,370.4,143.069z
						"/>
					<path style="fill:#263238;" d="M358.918,142.287c-0.168,0.565-0.597,0.956-0.96,0.874c-0.362-0.082-0.532-0.623-0.374-1.188
						c0.158-0.565,0.597-0.956,0.96-0.874C358.905,141.181,359.042,141.742,358.918,142.287z"/>
					<path style="fill:#263238;" d="M352.59,140.799c-0.169,0.576-0.597,0.956-0.96,0.874c-0.362-0.082-0.532-0.623-0.374-1.188
						c0.158-0.565,0.597-0.956,0.959-0.863C352.576,139.714,352.748,140.233,352.59,140.799z"/>
					<path style="fill:#ED893E;" d="M354.246,142.289c-0.873,1.175-1.897,2.233-3.043,3.145c0.463,0.551,1.154,0.862,1.893,0.853
						L354.246,142.289z"/>
					<path style="fill:#263238;" d="M355.507,149.226c-0.285-0.02-0.567-0.065-0.842-0.135c-0.09-0.018-0.145-0.106-0.123-0.197
						c0-0.002,0.001-0.004,0.001-0.006c0.032-0.091,0.129-0.144,0.22-0.122c1.404,0.363,2.931,0.03,4.117-0.899
						c0.072-0.065,0.18-0.063,0.242,0.005s0.054,0.176-0.018,0.242C358.079,148.949,356.782,149.349,355.507,149.226z"/>
					<path style="fill:#263238;" d="M361.83,141.604c-0.149-0.008-0.27-0.114-0.296-0.259c-0.349-1.051-1.13-1.885-2.153-2.302
						c-0.175-0.068-0.254-0.268-0.177-0.446c0.075-0.174,0.274-0.261,0.444-0.195c0.004,0.001,0.008,0.003,0.011,0.005
						c1.235,0.492,2.165,1.508,2.549,2.785c0.033,0.181-0.089,0.362-0.272,0.405h0C361.902,141.609,361.865,141.611,361.83,141.604z
						"/>
					<path style="fill:#263238;" d="M351.539,137.395c-0.124-0.01-0.23-0.084-0.28-0.196c-0.072-0.17,0.008-0.375,0.182-0.459
						c1.013-0.527,2.197-0.528,3.156-0.004c0.153,0.086,0.201,0.285,0.107,0.442c-0.005,0.008-0.01,0.016-0.015,0.023
						c-0.103,0.16-0.312,0.213-0.467,0.119c-0.001-0.001-0.003-0.002-0.004-0.003l0,0c-0.764-0.382-1.683-0.367-2.475,0.04
						C351.679,137.39,351.608,137.403,351.539,137.395z"/>
				</g>
				<g>
					<path style="fill:#263238;" d="M336.202,218.434c0,0-1.266-42.919,2.54-48.469c3.806-5.55,11.39-9.065,22.227-7.585
						c10.837,1.48,15.541,3.515,13.809,11.84c-1.731,8.325-6.893,46.804-6.893,46.804S347.946,223.799,336.202,218.434z"/>
					<path style="opacity:0.2;" d="M336.202,218.434c0,0-1.266-42.919,2.54-48.469c3.806-5.55,11.39-9.065,22.227-7.585
						c10.837,1.48,15.541,3.515,13.809,11.84c-1.731,8.325-6.893,46.804-6.893,46.804S347.946,223.799,336.202,218.434z"/>
				</g>
				<g>
					<path style="fill:#263238;" d="M351.486,163.305l1.002-2.408c0.409-0.983,1.409-1.61,2.449-1.534l8.797,0.64
						c1.219,0.089,2.113,1.107,2.048,2.334l-0.138,2.633L351.486,163.305z"/>
					<path style="opacity:0.2;" d="M351.486,163.305l1.002-2.408c0.409-0.983,1.409-1.61,2.449-1.534l8.797,0.64
						c1.219,0.089,2.113,1.107,2.048,2.334l-0.138,2.633L351.486,163.305z"/>
				</g>
				<path style="opacity:0.5;" d="M374.398,176.219l-0.176-0.633l-2.72-2.07l-3.159,2.07l3.607,16.33
					C372.869,185.616,373.76,179.782,374.398,176.219z"/>
				<path style="fill:#FFC3BD;" d="M373.089,210.387l-3.087,3.792c0,0-5.132,1.018-6.088,2.405
					c-0.956,1.388-4.339,4.162-1.831,5.735c2.508,1.572,5.387,1.342,7.43-0.577c2.043-1.92,2.986-3.215,3.208-4.325l4.574-4.717
					L373.089,210.387z"/>
				<path style="fill:#263238;" d="M360.381,129.487c0,0-10.667,0.555-7.223,6.105c0,0,5.424-0.462,8.243,2.22
					c0,0,0.374-3.607,3.056-3.607c0,0-3.898,3.773-0.424,8.084c3.474,4.311,0.228,6.246,0.228,6.246s1.714,0.84,3.246-1.935
					l2.37-0.312l1.714-4.603l0.314-5.999l-1.728-2.96l-2.721-2.354l-3.677-0.883H360.381z"/>
				<path style="fill:#FFC3BD;" d="M370.736,148.869c-0.79,1.144-1.985,1.954-3.324,2.254c-1.785,0.371-2.475-1.235-1.807-2.852
					c0.613-1.451,2.273-3.394,3.985-3.072c1.234,0.274,1.959,1.508,1.62,2.756C371.118,148.287,370.957,148.599,370.736,148.869z"/>
				<g>
					<path style="fill:#263238;" d="M370.077,164.384c0,0,7.452,2.066,13.279,22.662c5.827,20.596-7.51,27.996-7.51,27.996
						l-3.961-4.44c0,0,5.451-7.523,5.067-11.963c-0.384-4.44-4.67-14.43-4.67-14.43S360.853,163.181,370.077,164.384z"/>
					<path style="opacity:0.2;" d="M370.077,164.384c0,0,7.452,2.066,13.279,22.662c5.827,20.596-7.51,27.996-7.51,27.996
						l-3.961-4.44c0,0,5.451-7.523,5.067-11.963c-0.384-4.44-4.67-14.43-4.67-14.43S360.853,163.181,370.077,164.384z"/>
				</g>
			</g>
		</g>
		<g>
			<g>
				<path style="fill:#407BFF;" d="M372.892,115.596c-4.704,0-9.409,0-14.113,0c-0.695,0-0.791-1.08-0.094-1.08
					c4.704,0,9.409,0,14.113,0C373.492,114.516,373.588,115.596,372.892,115.596L372.892,115.596z"/>
			</g>
			<g>
				<path style="fill:#407BFF;" d="M353.609,115.596c-1.352,0-2.703,0-4.055,0c-0.695,0-0.791-1.08-0.094-1.08
					c1.352,0,2.703,0,4.055,0C354.209,114.516,354.305,115.596,353.609,115.596L353.609,115.596z"/>
			</g>
			<g style="opacity:0.4;">
				<path style="fill:#FFFFFF;" d="M372.892,115.596c-4.704,0-9.409,0-14.113,0c-0.695,0-0.791-1.08-0.094-1.08
					c4.704,0,9.409,0,14.113,0C373.492,114.516,373.588,115.596,372.892,115.596L372.892,115.596z"/>
			</g>
			<g style="opacity:0.4;">
				<path style="fill:#FFFFFF;" d="M353.609,115.596c-1.352,0-2.703,0-4.055,0c-0.695,0-0.791-1.08-0.094-1.08
					c1.352,0,2.703,0,4.055,0C354.209,114.516,354.305,115.596,353.609,115.596L353.609,115.596z"/>
			</g>
		</g>
	</g>
</g>
<g id="Character">
	<g>
		<g>
			<polygon style="fill:#FFB573;" points="259.149,401.263 258.911,414.648 265.954,414.225 266.822,402.101 			"/>
			<path style="fill:#263238;" d="M267.226,413.378l-8.892-0.16c-0.335-0.006-0.63,0.221-0.709,0.547l-1.737,7.205
				c-0.159,0.638,0.23,1.284,0.868,1.443c0.082,0.02,0.166,0.032,0.25,0.035c3.206,0.002,6.06-0.123,10.051-0.046
				c4.709,0.086,3.504,0.628,9.04,0.806c3.335,0.104,4.014-3.677,2.603-3.889c-6.46-0.931-7.097-2.898-9.553-5.26
				C268.611,413.604,267.928,413.362,267.226,413.378z"/>
			<polygon style="opacity:0.2;" points="259.112,403.374 259.022,408.389 266.355,408.621 266.643,404.595 			"/>
			<polygon style="fill:#FFB573;" points="227.725,398.91 225.985,412.182 233.032,412.554 235.255,400.604 			"/>
			<path style="fill:#263238;" d="M234.391,411.855l-8.818-1.158c-0.332-0.044-0.65,0.149-0.766,0.464l-2.536,6.964
				c-0.23,0.616,0.084,1.302,0.7,1.531c0.079,0.029,0.161,0.05,0.245,0.063c3.186,0.362,6.035,0.559,9.992,1.084
				c4.67,0.615,3.412,1.018,8.892,1.817c3.302,0.478,4.402-3.203,3.023-3.572c-6.314-1.651-6.726-3.677-8.901-6.3
				C235.742,412.236,235.09,411.918,234.391,411.855z"/>
			<polygon style="opacity:0.2;" points="227.451,401.003 226.799,405.976 234.059,407.031 234.798,403.062 			"/>
		</g>
		<path style="fill:#263238;" d="M263.994,164.027c0,0-13.353-4.262-16.388,7.555c-3.035,11.817-2.359,15.126-7.749,19.437
			c0,0,8.27,6.264,20.634,4.714c0,0,6.762,1.679,11.339-0.71c4.577-2.389,2.191-18.294,0.841-22.602
			C271.132,167.514,267.532,164.092,263.994,164.027z"/>
		<path style="fill:#263238;" d="M268.739,250.171c0,0,7.749,62.854,6.199,75.252c-1.55,12.398-7.232,81.107-7.232,81.107h-9.815
			c0,0-3.444-59.237,0-82.485c0,0-9.127-53.383-8.094-66.814C250.83,243.8,268.129,245.706,268.739,250.171z"/>
		<path style="opacity:0.3;" d="M256.43,315.183c2.17-21.019-2.388-44.864-2.388-44.864l-3.147,5.545
			C252.358,289.113,254.849,305.347,256.43,315.183z"/>
		<path style="fill:#263238;" d="M254.753,279.359c0.028,18.639-0.186,40.882-1.817,47.567
			c-2.961,12.139-17.507,77.711-17.507,77.711l-9.751-1.125c0,0,4.401-57.327,10.487-80.026c0,0-1.283-21.469-1.42-41.284
			c0,0-5.845-16.015,1.586-35.98c0,0,16.578-4.702,21.844,1.949C258.175,248.17,254.741,271.351,254.753,279.359z"/>
		<g>
			<path style="fill:#FFB573;" d="M281.078,220.854l5.166,15.886c0,0,8.782,1.162,15.24-0.904c0,0,2.583-4.004,7.362-4.262
				s5.166,0.517,5.166,0.517s-0.258,0.904-1.292,1.162c-1.033,0.258-2.841,0.517-2.841,0.517s0.129,6.458-2.841,7.362
				c-2.97,0.904-5.424,0-5.424,0s-14.336,3.874-18.856,2.454c-4.52-1.421-8.524-20.363-8.524-20.363L281.078,220.854z"/>
			<path style="fill:#407BFF;" d="M275.326,202.756c0,0,3.857-0.026,5.235,6.517c1.378,6.544,1.722,8.61,1.722,8.61
				s1.55,0.861,1.033,3.358c0,0-3.272,3.53-7.405,5.338C271.779,228.388,272.416,202.782,275.326,202.756z"/>
			<path style="opacity:0.1;" d="M279.311,210.913l-4.077,2.45l-2.236,3.573c0.134,5.567,1.024,10.47,2.913,9.644
				c1.232-0.539,2.384-1.231,3.399-1.937V210.913z"/>
		</g>
		<path style="fill:#407BFF;" d="M269.368,254.304c0,0,3.304-15.901,4.994-20.32c1.332-3.482,2.927-5.855,3.616-14.465
			c0.332-4.147,3.961-14.637-1.894-16.531c-5.855-1.894-31.685-7.405-35.129-3.272c-3.444,4.133-2.12,29.222-3.272,38.918
			c-0.34,2.862-2.755,11.193-2.755,11.193L269.368,254.304z"/>
		<path style="fill:#FFB573;" d="M234.325,211.592l5.032,8.098c0,0-2.578,8.396-4.386,13.563c0,0,7.232,6.587,14.594,8.524
			c0,0,5.424-0.775,8.395,1.033c2.971,1.808,2.644,3.358,2.644,3.358s-3.746,4.301-6.373,3.372c-2.627-0.929-3.89-0.918-5.828-2.855
			c0,0-20.511-5.685-21.691-10.203C225.026,230.024,234.325,211.592,234.325,211.592z"/>
		<path style="fill:#FFB573;" d="M255.981,184.892c0.119,4.338-0.746,11.638-4.695,12.955c0,0,0.423,4.88,11.553,11.513
			c5.324-5.436,3.483-9.313,3.483-9.313c-5.307-1.832-4.792-3.798-3.43-6.936L255.981,184.892z"/>
		<path style="fill:#407BFF;" d="M245.174,198.769c0,0-4.736-2.153-11.538,9.127c0,0-2.411,0-2.153,2.755
			c0,0,4.133,9.557,9.041,12.571c0,0,2.497-0.43,0.947-3.272C241.471,219.95,245.863,203.849,245.174,198.769z"/>
		<path style="fill:#FFFFFF;" d="M251.438,197.607c0,0,6.737,10.547,10.87,10.375c4.133-0.172,3.629-8.275,3.629-8.275l3.086,0.698
			c0,0,0.43,16.015-5.769,9.643c0,0-1.593,2.707-5.64,0.951c-4.047-1.756-8.76-13.392-8.76-13.392H251.438z"/>
		<path style="opacity:0.1;" d="M258.089,190.331c0,0,0.953,3.507,3.987,5.099c0.145-0.701,0.447-1.466,0.817-2.319l-1.908-2.268
			L258.089,190.331z"/>
		<path style="fill:#FFB573;" d="M251.691,176.75c0.733,7.217,0.895,10.278,4.698,13.836c5.721,5.362,14.423,2.872,15.86-4.41
			c1.283-6.563-0.14-17.296-7.341-19.843c-5.13-1.873-10.807,0.766-12.681,5.896C251.699,173.674,251.516,175.222,251.691,176.75z"
			/>
		<path style="fill:#263238;" d="M263.293,180.239c0.03,0.588,0.361,1.054,0.741,1.043c0.38-0.011,0.68-0.511,0.661-1.097
			c-0.02-0.586-0.361-1.054-0.741-1.043C263.574,179.153,263.302,179.679,263.293,180.239z"/>
		<path style="fill:#263238;" d="M269.943,179.982c0.028,0.599,0.361,1.054,0.741,1.043c0.38-0.011,0.68-0.511,0.661-1.097
			c-0.02-0.586-0.361-1.054-0.743-1.033C270.221,178.917,269.924,179.396,269.943,179.982z"/>
		<path style="fill:#263238;" d="M270.434,178.932l1.396-0.465C271.83,178.466,271.152,179.604,270.434,178.932z"/>
		<path style="fill:#ED893E;" d="M267.935,181.132c0.582,1.322,1.343,2.559,2.261,3.675c-0.594,0.454-1.356,0.628-2.089,0.478
			L267.935,181.132z"/>
		<path style="fill:#263238;" d="M264.997,187.717c0.289,0.034,0.579,0.044,0.87,0.028c0.094,0,0.17-0.076,0.17-0.17
			c0-0.002,0-0.004,0-0.006c-0.01-0.095-0.093-0.166-0.189-0.161c-1.483,0.089-2.921-0.53-3.874-1.67
			c-0.055-0.078-0.164-0.096-0.241-0.041c-0.078,0.055-0.096,0.163-0.041,0.241C262.508,186.953,263.7,187.595,264.997,187.717z"/>
		<path style="fill:#263238;" d="M260.565,179.011c0.15,0.021,0.296-0.06,0.357-0.199c0.602-0.967,1.581-1.639,2.699-1.854
			c0.19-0.034,0.317-0.215,0.284-0.405c-0.033-0.185-0.209-0.309-0.395-0.276c-0.004,0.001-0.008,0.002-0.012,0.003
			c-1.347,0.248-2.519,1.071-3.21,2.253c-0.077,0.172,0,0.373,0.172,0.45l0,0C260.492,179.002,260.528,179.012,260.565,179.011z"/>
		<path style="fill:#263238;" d="M271.815,176.833c0.125,0.014,0.249-0.039,0.326-0.139c0.113-0.154,0.083-0.37-0.069-0.487
			c-0.879-0.712-2.055-0.939-3.136-0.606c-0.174,0.056-0.269,0.242-0.213,0.415c0.003,0.009,0.006,0.017,0.009,0.025
			c0.063,0.177,0.258,0.269,0.436,0.206c0.002-0.001,0.003-0.001,0.005-0.002l0,0c0.852-0.23,1.762-0.04,2.45,0.512
			C271.677,176.802,271.744,176.829,271.815,176.833z"/>
		<path style="fill:#263238;" d="M263.775,179.241l1.396-0.466C265.171,178.775,264.5,179.871,263.775,179.241z"/>
		<path style="fill:#263238;" d="M272.209,173.672c0,0-1.291-4.479-2.712-5.835c-1.421-1.356-4.456-3.358-11.408-2.107
			c-6.952,1.251-9.256,17.67-4.929,16.184c4.327-1.485,7.331-7.039,7.331-7.039l-0.809,3.035c3.5-1.867,5.151-6.882,5.439-7.836
			c0.644,0.985,1.536,2.807,1.536,5.376c0,0,3.525-1.742,1.676-4.802C270.645,171.748,272.209,173.672,272.209,173.672z"/>
		<path style="fill:#FFB573;" d="M249.949,182.392c0.507,1.276,1.498,2.301,2.756,2.852c1.683,0.706,2.76-0.742,2.489-2.461
			c-0.257-1.544-1.435-3.773-3.214-3.782c-1.293,0.034-2.313,1.11-2.279,2.403C249.71,181.747,249.794,182.085,249.949,182.392z"/>
	</g>
</g>
<g id="Online_Friends_1">
	<g>
		<g>
			<g>
				<g>
					<path style="fill:#407BFF;" d="M206.466,331.956H102.597c-2.943,0-5.205-2.386-5.05-5.33l7.969-152.051
						c0.154-2.943,2.665-5.33,5.609-5.33h103.868c2.943,0,5.205,2.386,5.05,5.33l-7.969,152.051
						C211.92,329.57,209.409,331.956,206.466,331.956z"/>
					<path style="opacity:0.4;fill:#FFFFFF;" d="M206.466,331.956H102.597c-2.943,0-5.205-2.386-5.05-5.33l7.969-152.051
						c0.154-2.943,2.665-5.33,5.609-5.33h103.868c2.943,0,5.205,2.386,5.05,5.33l-7.969,152.051
						C211.92,329.57,209.409,331.956,206.466,331.956z"/>
				</g>
				<path style="fill:#407BFF;" d="M205.007,330.416H101.138c-2.943,0-5.205-2.386-5.05-5.33l7.969-152.051
					c0.154-2.943,2.665-5.33,5.609-5.33h103.868c2.943,0,5.205,2.386,5.05,5.33l-7.969,152.051
					C210.461,328.03,207.95,330.416,205.007,330.416z"/>
				<path style="opacity:0.8;fill:#FFFFFF;" d="M205.007,330.416H101.138c-2.943,0-5.205-2.386-5.05-5.33l7.969-152.051
					c0.154-2.943,2.665-5.33,5.609-5.33h103.868c2.943,0,5.205,2.386,5.05,5.33l-7.969,152.051
					C210.461,328.03,207.95,330.416,205.007,330.416z"/>
				<polygon style="fill:#407BFF;" points="207.45,294.04 102.508,294.04 106.2,223.596 211.141,223.596 				"/>
				<polygon style="fill:#FFFFFF;" points="211.141,223.596 106.2,223.596 107.911,190.953 212.852,190.953 				"/>
				<polygon style="fill:#FFFFFF;" points="205.82,325.143 100.878,325.143 102.508,294.04 207.45,294.04 				"/>
				<polygon style="fill:#407BFF;" points="212.951,189.072 108.009,189.072 108.823,173.546 213.764,173.546 				"/>
				<g>
					<path style="fill:#407BFF;" d="M122.875,202.601c-0.179,3.406-3.084,6.167-6.49,6.167c-3.406,0-6.022-2.761-5.844-6.167
						c0.179-3.406,3.084-6.167,6.49-6.167C120.437,196.434,123.053,199.195,122.875,202.601z"/>
					<path style="opacity:0.3;" d="M122.875,202.601c-0.179,3.406-3.084,6.167-6.49,6.167c-3.406,0-6.022-2.761-5.844-6.167
						c0.179-3.406,3.084-6.167,6.49-6.167C120.437,196.434,123.053,199.195,122.875,202.601z"/>
					<path style="fill:#FFFFFF;" d="M116.384,208.768c1.311,0,2.545-0.412,3.581-1.109l-0.239-1.926
						c-0.091-0.732-0.699-1.266-1.443-1.266h-0.734l0.042-0.799c0.829-0.404,1.441-1.308,1.496-2.362
						c0.075-1.43-0.9-2.59-2.177-2.59c-1.277,0-2.373,1.16-2.448,2.59c-0.055,1.055,0.462,1.958,1.248,2.362l-0.042,0.799h-0.734
						c-0.744,0-1.408,0.534-1.576,1.266l-0.44,1.926C113.882,208.356,115.074,208.768,116.384,208.768z"/>
				</g>
				<g>
					<g>
						<path d="M127.471,201.43c8.084,0,16.167,0,24.251,0c1.115,0,1.207-1.732,0.091-1.732c-8.084,0-16.167,0-24.251,0
							C126.448,199.698,126.355,201.43,127.471,201.43L127.471,201.43z"/>
					</g>
					<g style="opacity:0.6;">
						<path style="fill:#FFFFFF;" d="M127.471,201.43c8.084,0,16.167,0,24.251,0c1.115,0,1.207-1.732,0.091-1.732
							c-8.084,0-16.167,0-24.251,0C126.448,199.698,126.355,201.43,127.471,201.43L127.471,201.43z"/>
					</g>
				</g>
				<g>
					<g>
						<path d="M129.373,302.252c14.499,0,28.999,0,43.498,0c0.743,0,0.805-1.155,0.061-1.155c-14.499,0-28.999,0-43.498,0
							C128.691,301.097,128.629,302.252,129.373,302.252L129.373,302.252z"/>
					</g>
					<g style="opacity:0.6;">
						<path style="fill:#FFFFFF;" d="M129.373,302.252c14.499,0,28.999,0,43.498,0c0.743,0,0.805-1.155,0.061-1.155
							c-14.499,0-28.999,0-43.498,0C128.691,301.097,128.629,302.252,129.373,302.252L129.373,302.252z"/>
					</g>
				</g>
				<g>
					<g>
						<path d="M183.374,302.252c6.565,0,13.131,0,19.696,0c0.743,0,0.805-1.155,0.061-1.155c-6.565,0-13.131,0-19.696,0
							C182.692,301.097,182.63,302.252,183.374,302.252L183.374,302.252z"/>
					</g>
					<g style="opacity:0.6;">
						<path style="fill:#FFFFFF;" d="M183.374,302.252c6.565,0,13.131,0,19.696,0c0.743,0,0.805-1.155,0.061-1.155
							c-6.565,0-13.131,0-19.696,0C182.692,301.097,182.63,302.252,183.374,302.252L183.374,302.252z"/>
					</g>
				</g>
				<g>
					<g>
						<path d="M125.921,317.938c2.032,0,4.063,0,6.095,0c1.115,0,1.207-1.732,0.091-1.732c-2.032,0-4.063,0-6.095,0
							C124.897,316.206,124.804,317.938,125.921,317.938L125.921,317.938z"/>
					</g>
					<g style="opacity:0.6;">
						<path style="fill:#FFFFFF;" d="M125.921,317.938c2.032,0,4.063,0,6.095,0c1.115,0,1.207-1.732,0.091-1.732
							c-2.032,0-4.063,0-6.095,0C124.897,316.206,124.804,317.938,125.921,317.938L125.921,317.938z"/>
					</g>
				</g>
				<g>
					<g>
						<path d="M184.413,317.938c2.545,0,5.09,0,7.635,0c1.115,0,1.207-1.732,0.091-1.732c-2.545,0-5.09,0-7.635,0
							C183.389,316.206,183.296,317.938,184.413,317.938L184.413,317.938z"/>
					</g>
					<g style="opacity:0.6;">
						<path style="fill:#FFFFFF;" d="M184.413,317.938c2.545,0,5.09,0,7.635,0c1.115,0,1.207-1.732,0.091-1.732
							c-2.545,0-5.09,0-7.635,0C183.389,316.206,183.296,317.938,184.413,317.938L184.413,317.938z"/>
					</g>
				</g>
				<g>
					<g>
						<path d="M151.35,317.938c4.805,0,9.61,0,14.416,0c1.115,0,1.207-1.732,0.091-1.732c-4.805,0-9.611,0-14.416,0
							C150.326,316.206,150.234,317.938,151.35,317.938L151.35,317.938z"/>
					</g>
					<g style="opacity:0.6;">
						<path style="fill:#FFFFFF;" d="M151.35,317.938c4.805,0,9.61,0,14.416,0c1.115,0,1.207-1.732,0.091-1.732
							c-4.805,0-9.611,0-14.416,0C150.326,316.206,150.234,317.938,151.35,317.938L151.35,317.938z"/>
					</g>
				</g>
				<g>
					<g>
						<path d="M110.435,215.256c24.625,0-6.755,0,17.87,0c3.523,0,7.047,0,10.57,0c0.743,0,0.805-1.155,0.061-1.155
							c-24.625,0,6.755,0-17.87,0c-3.523,0-7.047,0-10.57,0C109.753,214.101,109.691,215.256,110.435,215.256L110.435,215.256z"/>
					</g>
					<g style="opacity:0.6;">
						<path style="fill:#FFFFFF;" d="M110.435,215.256c24.625,0-6.755,0,17.87,0c3.523,0,7.047,0,10.57,0
							c0.743,0,0.805-1.155,0.061-1.155c-24.625,0,6.755,0-17.87,0c-3.523,0-7.047,0-10.57,0
							C109.753,214.101,109.691,215.256,110.435,215.256L110.435,215.256z"/>
					</g>
				</g>
				<g>
					<g>
						<path d="M127.258,205.504c10.65,0,21.3,0,31.95,0c0.743,0,0.805-1.155,0.061-1.155c-10.65,0-21.3,0-31.95,0
							C126.575,204.349,126.514,205.504,127.258,205.504L127.258,205.504z"/>
					</g>
					<g style="opacity:0.6;">
						<path style="fill:#FFFFFF;" d="M127.258,205.504c10.65,0,21.3,0,31.95,0c0.743,0,0.805-1.155,0.061-1.155
							c-10.65,0-21.3,0-31.95,0C126.575,204.349,126.514,205.504,127.258,205.504L127.258,205.504z"/>
					</g>
					<path style="fill:#263238;" d="M165.32,204.927c-0.039,0.751-0.68,1.36-1.431,1.36s-1.328-0.609-1.289-1.36
						c0.039-0.751,0.68-1.36,1.431-1.36S165.359,204.176,165.32,204.927z"/>
					<path style="opacity:0.5;fill:#FFFFFF;" d="M165.32,204.927c-0.039,0.751-0.68,1.36-1.431,1.36s-1.328-0.609-1.289-1.36
						c0.039-0.751,0.68-1.36,1.431-1.36S165.359,204.176,165.32,204.927z"/>
				</g>
				<g>
					<g>
						<path d="M204.68,202.601c-0.319,0-0.564-0.258-0.547-0.577c0.017-0.319,0.289-0.577,0.608-0.577
							c0.319,0,0.564,0.258,0.547,0.577C205.271,202.343,204.999,202.601,204.68,202.601z"/>
						<path d="M206.477,202.601c-0.319,0-0.564-0.258-0.547-0.577c0.017-0.319,0.289-0.577,0.608-0.577
							c0.319,0,0.564,0.258,0.547,0.577C207.068,202.343,206.796,202.601,206.477,202.601z"/>
						<path d="M208.273,202.601c-0.319,0-0.564-0.258-0.547-0.577c0.017-0.319,0.289-0.577,0.608-0.577
							c0.319,0,0.564,0.258,0.547,0.577C208.864,202.343,208.592,202.601,208.273,202.601z"/>
					</g>
					<g style="opacity:0.5;">
						<path style="fill:#FFFFFF;" d="M204.68,202.601c-0.319,0-0.564-0.258-0.547-0.577c0.017-0.319,0.289-0.577,0.608-0.577
							c0.319,0,0.564,0.258,0.547,0.577C205.271,202.343,204.999,202.601,204.68,202.601z"/>
						<path style="fill:#FFFFFF;" d="M206.477,202.601c-0.319,0-0.564-0.258-0.547-0.577c0.017-0.319,0.289-0.577,0.608-0.577
							c0.319,0,0.564,0.258,0.547,0.577C207.068,202.343,206.796,202.601,206.477,202.601z"/>
						<path style="fill:#FFFFFF;" d="M208.273,202.601c-0.319,0-0.564-0.258-0.547-0.577c0.017-0.319,0.289-0.577,0.608-0.577
							c0.319,0,0.564,0.258,0.547,0.577C208.864,202.343,208.592,202.601,208.273,202.601z"/>
					</g>
				</g>
				<path style="opacity:0.3;" d="M194.935,175.928c-1.729,0-65.617,0-67.346,0c-2.445,0-4.531,1.982-4.659,4.427
					c-0.128,2.445,1.75,4.427,4.195,4.427c1.516,0,65.83,0,67.346,0c2.445,0,4.531-1.982,4.659-4.427
					C199.258,177.91,197.38,175.928,194.935,175.928z"/>
				<path style="fill:#FFFFFF;" d="M206.36,177.059c-1.807,0-3.349,1.465-3.443,3.272c-0.027,0.508,0.074,0.983,0.258,1.412
					l-0.384,1.908l1.998-0.295c0.375,0.158,0.788,0.247,1.229,0.247c1.807,0,3.349-1.465,3.443-3.272
					C209.555,178.524,208.167,177.059,206.36,177.059z M205.82,181.946l0.074-1.409l-1.546,0.321l2.205-2.095l-0.074,1.409
					l1.546-0.322L205.82,181.946z"/>
				<polygon style="fill:#FFFFFF;" points="112.056,180.05 114.411,181.012 117.006,179.232 115.057,181.542 116.491,183.563 
					118.759,177.933 				"/>
				<polygon style="fill:#FFFFFF;" points="114.125,181.879 115.188,183.178 114.057,183.178 				"/>
				<path style="fill:#407BFF;" d="M116.373,298.284c-1.719,0-3.185,1.393-3.275,3.112c-0.09,1.718,1.23,3.111,2.949,3.111
					s3.185-1.393,3.275-3.111C119.411,299.677,118.091,298.284,116.373,298.284z M115.151,302.769
					c-0.011,0.213-0.193,0.385-0.405,0.385c-0.213,0-0.376-0.172-0.365-0.385l0.067-1.283c0.011-0.213,0.193-0.385,0.405-0.385
					c0.213,0,0.376,0.172,0.365,0.385L115.151,302.769z M117.66,302.722c-0.013,0.059-0.042,0.115-0.084,0.161l-0.136,0.151
					c-0.068,0.076-0.165,0.12-0.264,0.12h-1.453c-0.154,0-0.272-0.125-0.264-0.279l0.08-1.532c0.004-0.085,0.036-0.167,0.09-0.235
					l0.69-0.87l0.032-0.601h0.316c0.13,0,0.236,0.094,0.25,0.222l0.049,0.43c0.005,0.046-0.002,0.093-0.02,0.136l-0.287,0.675h1.131
					l0.18,0.245L117.66,302.722z"/>
				<g>
					<g>
						<path d="M116.549,315.013h-0.71c-0.335,0-0.622,0.272-0.639,0.607l-0.172,3.276c-0.018,0.335,0.241,0.607,0.576,0.607h0.71
							c0.335,0,0.621-0.272,0.639-0.607l0.172-3.276C117.142,315.285,116.884,315.013,116.549,315.013z M116.567,318.897
							c-0.006,0.123-0.111,0.223-0.234,0.223h-0.71c-0.123,0-0.217-0.1-0.211-0.223l0.172-3.276
							c0.006-0.123,0.112-0.223,0.234-0.223h0.71c0.123,0,0.217,0.1,0.21,0.223L116.567,318.897z"/>
						<path d="M122.158,315.013h-2.078l0.464-1.091c0.05-0.119,0.069-0.247,0.055-0.371l-0.098-0.86
							c-0.04-0.35-0.327-0.604-0.681-0.604h-0.826l-0.07,1.332l-1.339,1.689c-0.134,0.167-0.213,0.374-0.224,0.584l-0.16,3.064
							c-0.022,0.414,0.297,0.75,0.71,0.75h2.907c0.255,0,0.502-0.112,0.679-0.307l0.271-0.301c0.106-0.117,0.181-0.261,0.216-0.415
							l0.637-2.837L122.158,315.013z M121.607,318.415c-0.019,0.086-0.061,0.165-0.12,0.232l-0.271,0.302
							c-0.098,0.109-0.236,0.171-0.378,0.171h-2.907c-0.201,0-0.356-0.164-0.345-0.365l0.161-3.064
							c0.007-0.129,0.054-0.252,0.136-0.355l1.42-1.792l0.056-1.074h0.441c0.166,0,0.3,0.119,0.319,0.283l0.098,0.86
							c0.007,0.059-0.002,0.119-0.026,0.174l-0.686,1.61h2.445l0.256,0.349L121.607,318.415z"/>
					</g>
					<g style="opacity:0.5;">
						<path style="fill:#FFFFFF;" d="M116.549,315.013h-0.71c-0.335,0-0.622,0.272-0.639,0.607l-0.172,3.276
							c-0.018,0.335,0.241,0.607,0.576,0.607h0.71c0.335,0,0.621-0.272,0.639-0.607l0.172-3.276
							C117.142,315.285,116.884,315.013,116.549,315.013z M116.567,318.897c-0.006,0.123-0.111,0.223-0.234,0.223h-0.71
							c-0.123,0-0.217-0.1-0.211-0.223l0.172-3.276c0.006-0.123,0.112-0.223,0.234-0.223h0.71c0.123,0,0.217,0.1,0.21,0.223
							L116.567,318.897z"/>
						<path style="fill:#FFFFFF;" d="M122.158,315.013h-2.078l0.464-1.091c0.05-0.119,0.069-0.247,0.055-0.371l-0.098-0.86
							c-0.04-0.35-0.327-0.604-0.681-0.604h-0.826l-0.07,1.332l-1.339,1.689c-0.134,0.167-0.213,0.374-0.224,0.584l-0.16,3.064
							c-0.022,0.414,0.297,0.75,0.71,0.75h2.907c0.255,0,0.502-0.112,0.679-0.307l0.271-0.301c0.106-0.117,0.181-0.261,0.216-0.415
							l0.637-2.837L122.158,315.013z M121.607,318.415c-0.019,0.086-0.061,0.165-0.12,0.232l-0.271,0.302
							c-0.098,0.109-0.236,0.171-0.378,0.171h-2.907c-0.201,0-0.356-0.164-0.345-0.365l0.161-3.064
							c0.007-0.129,0.054-0.252,0.136-0.355l1.42-1.792l0.056-1.074h0.441c0.166,0,0.3,0.119,0.319,0.283l0.098,0.86
							c0.007,0.059-0.002,0.119-0.026,0.174l-0.686,1.61h2.445l0.256,0.349L121.607,318.415z"/>
					</g>
				</g>
				<g>
					<g>
						<path d="M143.106,320.412l0.099-1.891h-1.06c-0.562,0-0.995-0.457-0.966-1.019l0.197-3.765
							c0.029-0.562,0.51-1.019,1.072-1.019h4.804c0.562,0,0.995,0.457,0.966,1.019l-0.197,3.765
							c-0.029,0.562-0.51,1.019-1.072,1.019h-1.854L143.106,320.412z M142.432,313.065c-0.371,0-0.688,0.302-0.708,0.673
							l-0.197,3.765c-0.019,0.371,0.266,0.673,0.637,0.673h1.406l-0.073,1.401l1.474-1.401h1.997c0.371,0,0.688-0.302,0.708-0.673
							l0.197-3.765c0.019-0.371-0.266-0.673-0.637-0.673H142.432z"/>
					</g>
					<g style="opacity:0.5;">
						<path style="fill:#FFFFFF;" d="M143.106,320.412l0.099-1.891h-1.06c-0.562,0-0.995-0.457-0.966-1.019l0.197-3.765
							c0.029-0.562,0.51-1.019,1.072-1.019h4.804c0.562,0,0.995,0.457,0.966,1.019l-0.197,3.765
							c-0.029,0.562-0.51,1.019-1.072,1.019h-1.854L143.106,320.412z M142.432,313.065c-0.371,0-0.688,0.302-0.708,0.673
							l-0.197,3.765c-0.019,0.371,0.266,0.673,0.637,0.673h1.406l-0.073,1.401l1.474-1.401h1.997c0.371,0,0.688-0.302,0.708-0.673
							l0.197-3.765c0.019-0.371-0.266-0.673-0.637-0.673H142.432z"/>
					</g>
				</g>
				<g>
					<g>
						<path d="M172.941,320.146l0.035-0.679c0.197-3.767,3.34-4.681,4.847-4.902l0.083-1.579l3.023,3.19l-3.357,3.19l0.106-2.017
							c-3.218,0.315-4.369,2.182-4.38,2.201L172.941,320.146z M178.209,313.822l-0.055,1.047l-0.153,0.019
							c-1.575,0.199-4.182,0.989-4.624,4.016c0.596-0.644,1.955-1.723,4.479-1.917l0.187-0.015l-0.082,1.557l2.477-2.353
							L178.209,313.822z"/>
					</g>
					<g style="opacity:0.5;">
						<path style="fill:#FFFFFF;" d="M172.941,320.146l0.035-0.679c0.197-3.767,3.34-4.681,4.847-4.902l0.083-1.579l3.023,3.19
							l-3.357,3.19l0.106-2.017c-3.218,0.315-4.369,2.182-4.38,2.201L172.941,320.146z M178.209,313.822l-0.055,1.047l-0.153,0.019
							c-1.575,0.199-4.182,0.989-4.624,4.016c0.596-0.644,1.955-1.723,4.479-1.917l0.187-0.015l-0.082,1.557l2.477-2.353
							L178.209,313.822z"/>
					</g>
				</g>
				<g>
					<path style="fill:#407BFF;" d="M123.426,298.284c-1.719,0-3.185,1.393-3.275,3.111c-0.09,1.719,1.23,3.112,2.949,3.112
						c1.718,0,3.185-1.393,3.274-3.112C126.464,299.677,125.144,298.284,123.426,298.284z M121.84,300.688
						c-0.213,0-0.372-0.25-0.356-0.558c0.016-0.308,0.202-0.558,0.414-0.558s0.372,0.25,0.356,0.558
						C122.238,300.438,122.053,300.688,121.84,300.688z M123.23,303.544c-0.484,0-0.846-0.569-0.81-1.271
						c0.037-0.702,0.459-1.271,0.943-1.271c0.484,0,0.846,0.569,0.809,1.271C124.136,302.975,123.714,303.544,123.23,303.544z
						 M124.92,300.688c-0.213,0-0.372-0.25-0.356-0.558c0.016-0.308,0.202-0.558,0.414-0.558c0.213,0,0.372,0.25,0.356,0.558
						C125.318,300.438,125.132,300.688,124.92,300.688z"/>
					<path style="fill:#407BFF;" d="M108.638,298.284c-1.719,0-3.185,1.393-3.275,3.112c-0.09,1.718,1.23,3.111,2.949,3.111
						s3.185-1.393,3.274-3.111C111.676,299.677,110.356,298.284,108.638,298.284z M109.997,301.53l-0.05,0.047l-1.56,1.482
						l-1.404-1.482v0l-0.045-0.047l0.005-0.005c-0.353-0.425-0.307-1.071,0.12-1.477c0.429-0.408,1.079-0.418,1.484-0.039
						c0.444-0.379,1.094-0.369,1.48,0.039c0.385,0.406,0.362,1.052-0.035,1.477L109.997,301.53z"/>
				</g>
				<path style="fill:#FFFFFF;" d="M163.184,182.666l-1.686-1.779c0.639-0.797,0.642-1.931-0.044-2.655
					c-0.752-0.794-2.044-0.794-2.879,0c-0.836,0.794-0.903,2.086-0.151,2.879c0.686,0.724,1.818,0.78,2.646,0.183l1.686,1.779
					L163.184,182.666z M158.852,180.705c-0.54-0.57-0.491-1.497,0.109-2.066c0.6-0.57,1.526-0.569,2.066,0
					c0.54,0.57,0.492,1.496-0.108,2.066C160.319,181.275,159.392,181.275,158.852,180.705z"/>
			</g>
			<g>
				<g>
					<path style="fill:#EEC8C0;" d="M169.764,247.296c0,0,5.3,0.57,7.917,6.174c2.617,5.604,6.02,16.4,7.983,17.251
						c1.963,0.851,10.535-7.59,10.535-7.59s-1.745-5.584,0.873-6.456c2.617-0.872,2.094-4.782,4.537-3.961s3.839,4.31,3.664,6.23
						c-0.174,1.919-4.711,6.281-4.711,6.281s-8.201,14.598-16.576,13.261c-8.375-1.337-14.221-23.556-14.221-23.556
						S167.408,246.991,169.764,247.296z"/>
					<path style="opacity:0.2;" d="M172.088,262.118c1.836,4.953,4.667,11.192,8.161,14.368c-3.783-6.072-4.687-19.599-4.687-19.599
						L172.088,262.118z"/>
				</g>
				<path style="fill:#263238;" d="M163.54,216.238c0.281,0.071,0.553,0.161,0.819,0.275c1.773,0.761,7.645,3.916,5.752,11.716
					c-0.634,2.614-0.511,4.685-0.011,6.309c1.077,3.496-1.552,7.046-5.199,7.336c-2.611,0.207-5.205,0.083-7.05-0.776
					c-1.335-0.621-2.855-0.681-4.244-0.193c-2.905,1.021-7.904,2.352-13.097,1.789c-2.387-0.259-4.58-1.023-6.485-1.972
					c-3.811-1.898-4.131-7.179-0.695-9.693c2.244-1.642,4.44-3.617,5.498-5.625c2.013-3.819,5.649-7.124,7.233-8.455
					c0.481-0.405,1.023-0.723,1.609-0.95l1.617-0.625c0.337-0.13,0.685-0.228,1.041-0.292l3.839-0.693
					c0.801-0.145,1.624-0.116,2.413,0.084L163.54,216.238z"/>
				<path style="fill:#407BFF;" d="M141.068,249.024c3.315-0.941,6.334-1.619,9.099-2.104l0.103,0.088l0.158,0.155l1.348,1.028
					l3.661,2.206l3.01,0.473l2.911-0.709l1.864-2.595l0.341-1.489l0.003-0.045c4.681,0.313,7.76,1.326,9.499,2.126
					c1.081,0.498,1.794,1.556,1.863,2.744c0.102,1.765,0.409,5.015,1.301,10.278c1.214,7.161-2.5,23.192-3.94,28.969
					c-0.326,1.306-1.423,2.266-2.757,2.442c-11.431,1.506-20.434,0.747-24.801,0.157c-1.603-0.216-2.812-1.562-2.83-3.179
					c-0.102-9.177-2.344-29.667-3.182-37.042C138.538,250.943,139.535,249.46,141.068,249.024z"/>
				<path style="opacity:0.6;fill:#FFFFFF;" d="M141.068,249.024c3.315-0.941,6.334-1.619,9.099-2.104l0.103,0.088l0.158,0.155
					l1.348,1.028l3.661,2.206l3.01,0.473l2.911-0.709l1.864-2.595l0.341-1.489l0.003-0.045c4.681,0.313,7.76,1.326,9.499,2.126
					c1.081,0.498,1.794,1.556,1.863,2.744c0.102,1.765,0.409,5.015,1.301,10.278c1.214,7.161-2.5,23.192-3.94,28.969
					c-0.326,1.306-1.423,2.266-2.757,2.442c-11.431,1.506-20.434,0.747-24.801,0.157c-1.603-0.216-2.812-1.562-2.83-3.179
					c-0.102-9.177-2.344-29.667-3.182-37.042C138.538,250.943,139.535,249.46,141.068,249.024z"/>
				<path style="fill:#EEC8C0;" d="M151.711,246.661c2.368-2.487,1.42-13.663,1.42-13.663l6.928,4.709c0,0,0.412,6.911,2.066,8.246
					c0.387,0.312,0.959,0.048,1.423,0.079l-0.421,1.757l-1.289,2.186l-1.779,1.261h-2.622l-2.355-0.673l-2.691-1.878l-2.193-1.767
					C150.706,246.831,151.369,247.02,151.711,246.661z"/>
				<path style="opacity:0.1;" d="M160.538,239.62c-4.556-0.519-6.653-2.883-7.601-4.755l0.194-1.867l6.928,4.709L160.538,239.62z"
					/>
				<path style="fill:#263238;" d="M166.782,212.803c0,0,2.489,4.065-1.85,4.623C164.932,217.426,167.32,214.754,166.782,212.803z"
					/>
				<polygon style="fill:#407BFF;" points="148.283,233.883 150.221,231.945 152.159,233.883 				"/>
				<path style="fill:#EEC8C0;" d="M150.288,225.826c1.459,5.756,1.958,8.216,5.464,10.641c5.276,3.656,12.024,0.596,12.315-5.473
					c0.252-5.468-2.187-13.99-8.324-15.188c-4.379-0.902-8.66,1.916-9.562,6.295C149.926,223.335,149.963,224.61,150.288,225.826z"
					/>
				<path style="fill:#263238;" d="M159.854,225.587c0.095,0.473,0.419,0.811,0.725,0.756c0.306-0.055,0.49-0.495,0.403-0.968
					c-0.086-0.473-0.419-0.811-0.725-0.756C159.952,224.674,159.794,225.133,159.854,225.587z"/>
				<path style="fill:#263238;" d="M165.209,224.582c0.095,0.481,0.419,0.81,0.725,0.756c0.306-0.055,0.49-0.495,0.403-0.968
					c-0.086-0.472-0.419-0.81-0.725-0.747C165.306,223.686,165.123,224.11,165.209,224.582z"/>
				<path style="fill:#263238;" d="M165.48,223.673l1.074-0.544C166.555,223.128,166.142,224.131,165.48,223.673z"/>
				<path style="fill:#ED893E;" d="M163.721,225.754c0.63,1.001,1.394,1.911,2.271,2.705c-0.427,0.439-1.023,0.671-1.634,0.637
					L163.721,225.754z"/>
				<path style="fill:#263238;" d="M157.497,224.92c0.124-0.001,0.232-0.084,0.266-0.204c0.372-0.855,1.083-1.517,1.964-1.825
					c0.15-0.05,0.231-0.212,0.182-0.362c-0.048-0.146-0.206-0.225-0.352-0.177c-0.003,0.001-0.007,0.002-0.01,0.003
					c-1.061,0.362-1.911,1.169-2.329,2.209c-0.042,0.148,0.045,0.302,0.193,0.344h0C157.438,224.921,157.468,224.925,157.497,224.92
					z"/>
				<path style="fill:#263238;" d="M166.347,221.808c0.103-0.004,0.197-0.062,0.247-0.152c0.073-0.138,0.023-0.31-0.114-0.386
					c-0.797-0.471-1.777-0.514-2.612-0.115c-0.134,0.066-0.189,0.228-0.123,0.362c0.003,0.007,0.007,0.013,0.01,0.02
					c0.073,0.136,0.242,0.187,0.377,0.115c0.001-0.001,0.003-0.001,0.004-0.002l0,0c0.662-0.288,1.422-0.243,2.046,0.121
					C166.232,221.799,166.289,221.812,166.347,221.808z"/>
				<path style="fill:#263238;" d="M160.125,224.721l1.074-0.544C161.199,224.177,160.787,225.145,160.125,224.721z"/>
				<path style="fill:#263238;" d="M162.819,212.554c2.09,1.155,7.706,6.945-7.436,5.995c0,0,0.03,9.465-4.73,10.75l-12.456-2.055
					C138.197,227.245,143.149,201.688,162.819,212.554z"/>
				<path style="fill:#EEC8C0;" d="M149.554,230.605c0.564,0.973,1.489,1.684,2.574,1.979c1.448,0.37,2.146-0.932,1.721-2.292
					c-0.393-1.22-1.614-2.883-3.056-2.678c-1.043,0.183-1.74,1.176-1.558,2.219C149.283,230.111,149.392,230.374,149.554,230.605z"
					/>
				<g>
					<path style="fill:#263238;" d="M164.856,230.748c0,0-2.012,1.09-4.717,0c0,0-0.191,2.904,3.252,2.665
						c0.369-0.026,1.466-0.187,1.466-0.187S164.567,232.04,164.856,230.748z"/>
					<path style="fill:#FFFFFF;" d="M160.292,231.747c-0.18-0.538-0.154-0.998-0.154-0.998c1.678,0.676,3.086,0.513,3.917,0.292
						v0.951C164.055,231.991,161.779,232.392,160.292,231.747z"/>
					<path style="fill:#C13B37;" d="M160.614,232.39c0.246-0.03,0.498-0.048,0.758-0.048c1.247,0,2.347,0.372,3.076,0.943
						c-0.352,0.049-0.835,0.113-1.057,0.129C161.853,233.52,161.042,232.999,160.614,232.39z"/>
				</g>
				<path style="fill:#FFFFFF;" d="M164.875,246.031c0,0-1.623-0.548-2.272,0c0,0,0.118,4.206-3.275,4.737
					c-3.393,0.531-8.612-4.072-8.612-4.072s-0.977-0.325-2.276,0.354c0,0,4.013,5.813,10.976,5.813
					C165.065,252.864,164.875,246.031,164.875,246.031z"/>
				<path style="fill:#EEC8C0;" d="M135.119,259.72c0.051-2.174,0.562-9.052,5.242-10.394c4.68-1.342,4.2,13.982,3.098,21.693
					c-1.102,7.711-2.459,9.559,0.738,10.209c3.196,0.65,18.333,3.797,18.333,3.797s3.268-3.462,5.553-3.147
					c2.285,0.315,4.879-1.521,5.117,0.944c0.238,2.465-1.258,7.624-4.484,7.51c-3.226-0.114-6.186-0.586-6.186-0.586
					s-14.98,1.834-22.533-0.814C132.444,286.283,134.906,268.726,135.119,259.72z"/>
				<path style="fill:#263238;" d="M173.106,294.04l-0.817-3.891c0,0-21.231,2.201-30.286,0.183l-1.185,3.709H173.106z"/>
			</g>
		</g>
		<g>
			<g>
				<path style="fill:#407BFF;" d="M165.88,338.34c-4.704,0-9.409,0-14.113,0c-0.695,0-0.791-1.08-0.094-1.08
					c4.704,0,9.409,0,14.113,0C166.48,337.26,166.576,338.34,165.88,338.34L165.88,338.34z"/>
			</g>
			<g>
				<path style="fill:#407BFF;" d="M146.597,338.34c-1.352,0-2.703,0-4.055,0c-0.695,0-0.791-1.08-0.094-1.08
					c1.352,0,2.703,0,4.055,0C147.197,337.26,147.293,338.34,146.597,338.34L146.597,338.34z"/>
			</g>
			<g style="opacity:0.4;">
				<path style="fill:#FFFFFF;" d="M165.88,338.34c-4.704,0-9.409,0-14.113,0c-0.695,0-0.791-1.08-0.094-1.08
					c4.704,0,9.409,0,14.113,0C166.48,337.26,166.576,338.34,165.88,338.34L165.88,338.34z"/>
			</g>
			<g style="opacity:0.4;">
				<path style="fill:#FFFFFF;" d="M146.597,338.34c-1.352,0-2.703,0-4.055,0c-0.695,0-0.791-1.08-0.094-1.08
					c1.352,0,2.703,0,4.055,0C147.197,337.26,147.293,338.34,146.597,338.34L146.597,338.34z"/>
			</g>
		</g>
	</g>
</g>
<g id="Chat_1">
	<g>
		<g>
			<g>
				<path style="fill:#407BFF;" d="M231.569,119.18l-1.343,25.624c-0.09,1.725-1.562,3.124-3.287,3.124h-88.835
					c-1.161,0-2.298,0.461-3.162,1.282l-5.016,4.766c-1.184,1.125-3.067,0.328-2.983-1.263l1.757-33.532
					c0.09-1.725,1.562-3.124,3.287-3.124h96.621C230.334,116.056,231.659,117.454,231.569,119.18z"/>
				<path style="opacity:0.4;fill:#FFFFFF;" d="M231.569,119.18l-1.343,25.624c-0.09,1.725-1.562,3.124-3.287,3.124h-88.835
					c-1.161,0-2.298,0.461-3.162,1.282l-5.016,4.766c-1.184,1.125-3.067,0.328-2.983-1.263l1.757-33.532
					c0.09-1.725,1.562-3.124,3.287-3.124h96.621C230.334,116.056,231.659,117.454,231.569,119.18z"/>
			</g>
			<path style="fill:#407BFF;" d="M229.674,117.18l-1.343,25.624c-0.09,1.725-1.562,3.124-3.287,3.124h-88.835
				c-1.161,0-2.298,0.461-3.162,1.282l-5.016,4.766c-1.184,1.125-3.067,0.328-2.984-1.263l1.757-33.532
				c0.09-1.725,1.562-3.124,3.287-3.124h96.621C228.439,114.056,229.764,115.454,229.674,117.18z"/>
			<path style="opacity:0.8;fill:#FFFFFF;" d="M229.674,117.18l-1.343,25.624c-0.09,1.725-1.562,3.124-3.287,3.124h-88.835
				c-1.161,0-2.298,0.461-3.162,1.282l-5.016,4.766c-1.184,1.125-3.067,0.328-2.984-1.263l1.757-33.532
				c0.09-1.725,1.562-3.124,3.287-3.124h96.621C228.439,114.056,229.764,115.454,229.674,117.18z"/>
		</g>
		
			<ellipse transform="matrix(0.7163 -0.6978 0.6978 0.7163 -49.7618 137.5863)" style="fill:#FFFFFF;" cx="144.327" cy="129.992" rx="12.658" ry="12.012"/>
		<g>
			<g>
				<path style="fill:#263238;" d="M149.127,139.799l2.21-1.103c0,0,3.052-12.461-0.503-19.923l-4.168-1.172h-1.481l-4.152,0.49
					c0,0-5.002,1.096-4.115,19.995l1.693,1.37l0.662,0.342c0,0,1.966,0.643,4.875,0.822c2.909,0.179,4.31-0.822,4.31-0.822H149.127z
					"/>
				<path style="fill:#CE7A63;" d="M140.269,138.308c0,0,1.614-1.372,1.991-4.698h4.616c0,0-0.211,4.698,2.034,4.698H140.269z"/>
				<path style="opacity:0.1;" d="M142.26,133.611c-0.081,0.715-0.221,1.334-0.388,1.874c0.684,0.273,1.527,0.475,2.53,0.475
					c0.957,0,1.823-0.222,2.564-0.528c-0.128-0.974-0.09-1.82-0.09-1.82H142.26z"/>
				<path style="fill:#CE7A63;" d="M151.546,126.324c-0.253,4.818-2.985,8.723-7.275,8.723s-6.613-3.906-6.361-8.723
					c0.252-4.818,2.985-8.723,7.275-8.723C149.475,117.601,151.798,121.506,151.546,126.324z"/>
				<path style="fill:#BA4D3C;" d="M145.168,126.725c0.124,0.802,0.359,1.578,0.699,2.305c-0.39,0.188-0.834,0.198-1.213,0.027
					L145.168,126.725z"/>
				<g>
					<path style="fill:#263238;" d="M142.161,126.751c-0.038,0.319,0.097,0.588,0.305,0.601c0.208,0.013,0.404-0.232,0.441-0.551
						c0.038-0.319-0.099-0.584-0.306-0.597C142.393,126.191,142.197,126.436,142.161,126.751z"/>
					<path style="fill:#263238;" d="M141.086,125.634c-0.032-0.002-0.063-0.011-0.09-0.026c-0.071-0.07-0.073-0.185-0.005-0.265
						c0.41-0.461,1.006-0.709,1.603-0.667c0.102,0.014,0.169,0.108,0.15,0.211c-0.019,0.103-0.118,0.175-0.22,0.161l0,0
						c-0.473-0.028-0.943,0.173-1.263,0.541C141.213,125.633,141.147,125.65,141.086,125.634z"/>
				</g>
				<g>
					<path style="fill:#263238;" d="M147.855,126.751c0.004,0.319-0.159,0.588-0.368,0.601c-0.209,0.013-0.38-0.232-0.384-0.551
						c-0.004-0.319,0.16-0.584,0.369-0.597C147.682,126.191,147.852,126.436,147.855,126.751z"/>
					<path style="fill:#263238;" d="M149.047,125.634c0.032-0.002,0.064-0.011,0.093-0.026c0.078-0.07,0.092-0.185,0.032-0.265
						c-0.362-0.461-0.932-0.709-1.533-0.667c-0.104,0.014-0.18,0.108-0.172,0.211s0.099,0.175,0.203,0.161l0,0
						c0.476-0.028,0.925,0.173,1.206,0.541C148.921,125.633,148.985,125.65,149.047,125.634z"/>
				</g>
				<path style="fill:#263238;" d="M144.918,131.593c0.191,0.001,0.383-0.016,0.574-0.05c0.055-0.009,0.094-0.06,0.088-0.115
					c0-0.001,0-0.002-0.001-0.003c-0.006-0.053-0.055-0.09-0.109-0.081c-0.852,0.165-1.711-0.079-2.317-0.657
					c-0.035-0.041-0.099-0.044-0.142-0.007c-0.043,0.038-0.05,0.101-0.014,0.143C143.5,131.324,144.188,131.6,144.918,131.593z"/>
				<path style="fill:#263238;" d="M148.788,122.499c0,0,0.831,4.115,2.713,4.682l0.787-0.857c0,0,1.529-10.084-6.539-10.13
					c-9.709-0.055-8.258,10.987-8.258,10.987s2.871-0.944,3.381-7.06c0,0,1.902,3.058,6.439,2.718L148.788,122.499z"/>
				<path style="fill:#CE7A63;" d="M138.667,126.761c0.462,1.001,0.302,2.148-0.358,2.562s-1.57-0.063-2.032-1.064
					c-0.462-1.001-0.302-2.148,0.358-2.562C137.295,125.283,138.205,125.76,138.667,126.761z"/>
				<path style="fill:#CE7A63;" d="M150.367,126.761c-0.567,1.001-0.527,2.148,0.089,2.562c0.617,0.414,1.576-0.063,2.143-1.064
					c0.567-1.001,0.527-2.148-0.089-2.562C151.894,125.283,150.935,125.76,150.367,126.761z"/>
			</g>
			<path style="fill:#407BFF;" d="M143.68,142.322c3.497,0,6.723-1.462,9.09-3.8c-2.121-1.193-4.883-1.147-4.883-1.147
				s-1.484,0.933-3.922,0.933c-2.439,0-3.704-0.933-3.704-0.933c-2.475,0-4.064,0.576-5.094,1.35
				C137.28,140.947,140.283,142.322,143.68,142.322z"/>
		</g>
		<g>
			<g>
				<polygon style="fill:#407BFF;" points="213.97,135.723 210.396,131.951 211.596,130.811 214.09,133.443 218.851,128.919 
					219.931,130.059 				"/>
			</g>
			<g>
				<polygon style="fill:#407BFF;" points="215.437,131.891 214.413,130.811 213.213,131.951 214.237,133.031 				"/>
				<polygon style="fill:#407BFF;" points="221.668,128.919 216.907,133.443 216.787,133.316 215.588,134.456 216.787,135.723 
					222.748,130.059 				"/>
			</g>
		</g>
		<g>
			<path style="fill:#263238;" d="M170.391,127.195l-0.44,8.396h-0.636l0.211-4.018h-4.881l-0.211,4.018h-0.636l0.44-8.396h0.636
				l-0.198,3.778h4.881l0.198-3.778H170.391z"/>
			<path style="fill:#263238;" d="M177.74,132.617c-0.005,0.096-0.022,0.191-0.027,0.288h-5.433
				c0.073,1.355,1.058,2.243,2.425,2.243c0.983,0,1.751-0.456,2.132-1.091l0.512,0.312c-0.535,0.815-1.498,1.355-2.686,1.355
				c-1.847,0-3.085-1.319-2.99-3.13c0.092-1.763,1.436-3.13,3.271-3.13C176.765,129.462,177.826,130.973,177.74,132.617z
				 M172.31,132.316h4.822c-0.056-1.463-1.044-2.278-2.219-2.278C173.545,130.038,172.5,130.985,172.31,132.316z"/>
			<path style="fill:#263238;" d="M179.449,126.835h0.6l-0.459,8.755h-0.6L179.449,126.835z"/>
			<path style="fill:#263238;" d="M181.897,126.835h0.6l-0.459,8.755h-0.6L181.897,126.835z"/>
			<path style="fill:#263238;" d="M183.636,132.592c0.093-1.775,1.567-3.13,3.318-3.13c1.739,0,3.071,1.355,2.978,3.13
				c-0.093,1.775-1.567,3.13-3.306,3.13C184.875,135.723,183.542,134.367,183.636,132.592z M189.321,132.592
				c0.075-1.427-0.97-2.554-2.397-2.554c-1.427,0-2.602,1.127-2.676,2.554s0.981,2.555,2.409,2.555
				C188.083,135.147,189.246,134.019,189.321,132.592z"/>
			<path style="fill:#263238;" d="M190.581,135.171c0.016-0.3,0.256-0.54,0.568-0.54c0.3,0,0.527,0.24,0.512,0.54
				s-0.268,0.54-0.568,0.54C190.78,135.711,190.565,135.471,190.581,135.171z"/>
			<path style="fill:#263238;" d="M193.137,135.171c0.016-0.3,0.256-0.54,0.568-0.54c0.3,0,0.527,0.24,0.511,0.54
				c-0.016,0.3-0.268,0.54-0.568,0.54C193.336,135.711,193.121,135.471,193.137,135.171z"/>
			<path style="fill:#263238;" d="M195.693,135.171c0.016-0.3,0.256-0.54,0.568-0.54c0.3,0,0.527,0.24,0.512,0.54
				s-0.268,0.54-0.568,0.54C195.893,135.711,195.677,135.471,195.693,135.171z"/>
		</g>
	</g>
</g>
</svg>
